# xmcd
#
# Track frame offsets:
# 150
# 12135
# 27185
# 41176
# 56410
# 66928
# 81984
# 91485
# 101658
# 117334
# 131698
# 142713
# 166357
#
# Disc length: 4389 seconds
#
#
# Revision: 0
# Processed by: cddbd v1.5.1PL2 Copyright (c) Steve Scherf et al.
# Submitted via: FreeRIP 2.945 
#
DISCID=ab11230d
DTITLE=The Basics - Get Back
DYEAR=1900
DGENRE=Rock And Roll
TTITLE0=Hey C'Mon
TTITLE1=You're Already Gone
TTITLE2=Did I Ever Stand A Chance
TTITLE3=I Could Go On
TTITLE4=Lovin' Man
TTITLE5=What Have You Done?
TTITLE6=Can You Trust Me?
TTITLE7=She's Gonna B. Late
TTITLE8=I Don't Need Another
TTITLE9=Gone... Gone... Gone...
TTITLE10=It's Over
TTITLE11=Karolina
TTITLE12=MULTIMEDIA
EXTD=Where's The Beef
EXTT0=
EXTT1=
EXTT2=
EXTT3=
EXTT4=
EXTT5=
EXTT6=
EXTT7=
EXTT8=
EXTT9=
EXTT10=
EXTT11=
EXTT12=
PLAYORDER=
